/* XPM */
static char *c4b6abf07cb54f12d647a4a39feb54a13CsFKjd7VYo4g6Nq[] = {
/* columns rows colors chars-per-pixel */
"32 32 16 1 ",
"  c None",
". c black",
"X c #101010",
"o c #202020",
"O c gray19",
"+ c #600030",
"@ c gray25",
"# c #C0A040",
"$ c #F2C44D",
"% c #F8E060",
"& c #A0A0A0",
"* c gray69",
"= c #C0C0C0",
"- c #D0D0D0",
"; c gray94",
": c white",
/* pixels */
"                                ",
"               %%%              ",
"              #@@@#@            ",
"             @@@@@@@@@          ",
"            @@@@@@@@@@@@        ",
"           @@@@@@@@@::;@@@      ",
"          @@@@@---@::;;@@@@     ",
"         @@@@---oo==;;@@@@@@#   ",
"        @@@@--o===oo=@@@@@@@@%  ",
"       @@@@--ooo==o==@@@@@@@@%O ",
"      @@@@@--ooo====**@@@@@@#+O ",
"     @@@@@@--=o==oo***@@@@@@@OO.",
"    @@@@@@@@-===oooo**@@@@@@OOX.",
"   @@@@@@@@==&==ooo***@@@@@OOXX.",
"  @@@@@@@@=o==&==****@@@@@OOXX..",
" #@@@@#@@@=::==oo***@@@@@OOXX.. ",
"%@@@@@##@@::;;oo**@@@@@@OOXX..  ",
"%@@@@@@##::;;=**@@@@@@@OOXX..   ",
" #@@@@@@##;;@@@@@@@@@@OOXX..    ",
" **@@@@@$###@@@@@@@@@OOXX..     ",
" ==**@@$$$@###@@@@@@OOXX..      ",
" --==**@$@@@@##@@@@OOXX..       ",
"o----==**@@@@@@@%@OOXX..        ",
".oo----==**@@@@#%OOXX..         ",
" ..oo----==**##%OOXX..          ",
"   ..oo----==*OOOXX..           ",
"     ..oo----=OOXX..            ",
"       ..oo--=XXX..             ",
"         ..oo*XX..              ",
"           ...X..               ",
"             ...                ",
"                                "
};
