/* XPM */
static char *fd674123309547c8ee8a50e2b4362517t0BrfKWwVyaclify[] = {
/* columns rows colors chars-per-pixel */
"32 32 24 1 ",
"  c #003600",
". c #003A00",
"X c #003E00",
"o c #004300",
"O c #004600",
"+ c #004900",
"@ c #004C00",
"# c #005200",
"$ c #005500",
"% c #005B00",
"& c #005E00",
"* c #006000",
"= c #006700",
"- c #006A00",
"; c #006C00",
": c #007200",
"> c #007400",
", c #007800",
"< c #007E00",
"1 c #008000",
"2 c #008600",
"3 c #008A00",
"4 c #008F00",
"5 c #EBE024",
/* pixels */
"*:+O;%:%:-1+#*=-&*#+.*&=1@#=@:&X",
"**=@===-==1O$%&:$*=%X$%$===$+=$X",
"&&*&%$,;&53@O#$*=%-$X$&O*>>O$&#@",
"-&--&#**-+,$+%&#&#:&X*&%%<,@&%&*",
";=$%#@&#>@;%%:*$*O&*o<#;&<>*>@<&",
"&:=+o@##:&;$==##5&%;o,;1@<>;-O,&",
"=;:@@O=$<@=$:>&+==&-O:*,#<;;:@*@",
"@;-&$o>;=#-@%=-$&*;>o%:,#=&*=+&%",
"=$*&-o=$*#&&$*:**$2=+#*:##+;&*$@",
"&$@#$O%=+&-+O&-=*%;*+O*<&$#*$-&$",
",&#%@@O*+=#%#=-$@*%@#%&,&;&%&>@#",
">*O;%%#1@*$&=&*%O#+%%@%,$:&o%&@O",
"**&>--$-O%*>&#=&.;$&$-@:O=@@$$#O",
"+&$-;$--&o:2#.=:o&=-%-O-#%%$%=%@",
"%%*@-=:#-@=3oX,;O:%%@>%$=#$$#:%*",
"$*+O&&2*2+$3o.4<@&#-#;&+>@;%#1$;",
":+$O::2@4*#4@o2;+-##+:=X:O%+o>#:",
"=%$#-&:$3##<O$1&%-$@@>=+-#-%$:$=",
";#$#>-%&2%$,%=:O-*&@+-:%$%=*$&*=",
"&&#@=*X;;@&-*>=X1#=%@&:=O$<-$*&&",
"$=#X;,O-:+*&-*-%>X:=&$-;.%=%&5-=",
"*=-+=1@*>%;#&$,:=#,*&&=;$=@o%-$$",
"-&;O*>&@,#1&-+->%&:&&%#=$=oo$:$#",
":&,=+-&+:#2>&@#&-:*%*+X-**OXO<@@",
",@,:+#=+%@1<:*@@-<#&:.O*@=oX#2=@",
">@=3#=*%&51:;*-+>>#;1.=,=>oX*;>%",
"<X&>$:$&@>::;*<#*;%*> 1:-;#@,::;",
":#&;$<*=*>*=$#*%=*=%>o,,2;:*<;;:",
"--,%@&--&,+&&O=&#-=O-@>><;=:;,;-",
"$,-$*$,>*:&O#X;-@==+>=*,;1&:=&:&",
"%;%&:#&&&*#X=O;&%$#+;*%<$<+;#*;$",
"%-%;<-@#%=#%*$;&@o*&>=$1&=%:;-;*"
};
