/* XPM */
static char *c9ca5acc18054b7ea1b6d6a00d3e1720GiBxY6I333Ar8AIn[] = {
/* columns rows colors chars-per-pixel */
"32 32 21 1 ",
"  c None",
". c black",
"X c gray19",
"o c #600000",
"O c gray25",
"+ c #505050",
"@ c #7F5A48",
"# c #A00000",
"$ c #C00000",
"% c #E00000",
"& c red",
"* c #E07000",
"= c #A5765E",
"- c #FF8000",
"; c #FFC000",
": c yellow",
"> c #CA8F72",
", c #FF0080",
"< c #E5A282",
"1 c #FFB691",
"2 c #FFD3AF",
/* pixels */
"        .  .. ...   .           ",
"       .+..+X.+OO...O.          ",
"        .+X..OXXX+XO.           ",
"        ..+X+211OX.....         ",
"       .X...O,1,1OX..XX.        ",
"        .+..X>2<1OXXOO.X.       ",
"        .X++X<21=OOOX..         ",
"         .....1=@XXXXXO.        ",
"          .=:<11<:<>..O.        ",
"         .2<:;<<:;<1>..O.       ",
"         .22;;;:;-<1>...        ",
"         .21-;;-<<>21>.   .     ",
"        .21<<--<<>=12>.  .&..   ",
"        .2<@>=@>>=@<2<.   .&$.  ",
"       .21<@2<21<>.<2<@.   .&$. ",
"      .:;-@.>@>><>.@1<=.   .$#. ",
"     ..;-*..2=21>@..:;-.   .&#. ",
"    .221<. .>@>>>@..:-*.   .%#. ",
"    .11<.  .2>21>o..;-*. ..&#.  ",
"    .><.   .$<<&$o..<<=..$%#o.  ",
"     ..   ..&%$$%o..2<..o&$o.   ",
"          .$%$&$$o..1<..$%#.    ",
"          .&&%$%&o. ....&$#.    ",
"         .%$%$&$$o.   .$%&#..   ",
"         .$%#$%&$.    .&$%o.... ",
"         .$#$#%$&o.   .%$$o.....",
"         .#$#$#%$%o...#$&#o.....",
"         .$#$#$#$&$$&%$$#o......",
"          .$#$#$#$%%$#$#oo......",
"          .###$#$#$#$$oo........",
"           ..ooooooooo......... ",
"             ................   "
};
